<svg width="144" height="32" viewBox="0 0 144 32" fill="none" xmlns="http://www.w3.org/2000/svg">
<path d="M132.086 23.9407C131.49 23.9407 131.043 23.7296 130.746 23.3074C130.448 22.8641 130.299 22.273 130.299 21.5342C130.299 21.4286 130.299 21.3231 130.299 21.2175C130.299 21.112 130.309 21.0064 130.331 20.9009C130.437 20.0987 130.618 19.1909 130.873 18.1777C131.15 17.1644 131.469 16.0983 131.831 14.9795C132.043 14.3462 132.309 13.5546 132.629 12.6046C132.969 11.6335 133.363 10.5992 133.809 9.50143C134.256 8.38259 134.746 7.27432 135.277 6.17659C135.831 5.07887 136.437 4.0867 137.097 3.20008C137.756 2.29234 138.448 1.56405 139.171 1.01519C139.916 0.466325 140.703 0.191895 141.533 0.191895C142.213 0.191895 142.682 0.360775 142.937 0.698535C143.192 1.01519 143.32 1.39517 143.32 1.83848C143.32 2.3029 143.235 2.77788 143.065 3.26341C142.894 3.72783 142.724 4.11836 142.554 4.43502C142.171 5.19498 141.671 6.04993 141.054 6.99989C140.437 7.94984 139.788 8.83646 139.107 9.65975C138.703 10.1875 138.203 10.7786 137.607 11.433C137.011 12.0874 136.448 12.689 135.916 13.2379C135.405 13.7868 135.033 14.1667 134.799 14.3779L134.288 15.8344C134.139 16.2355 133.99 16.7105 133.841 17.2594C133.714 17.8082 133.597 18.3571 133.49 18.906C133.405 19.4337 133.331 19.8981 133.267 20.2992C133.246 20.3837 133.235 20.4681 133.235 20.5525C133.235 20.637 133.235 20.7109 133.235 20.7742C133.235 21.4075 133.48 21.7241 133.969 21.7241C134.267 21.7241 134.639 21.5869 135.086 21.3125C135.511 21.0592 135.916 20.732 136.299 20.3309C136.703 19.9087 136.99 19.592 137.16 19.3809C137.586 18.8321 137.99 18.2515 138.373 17.6394C138.756 17.0061 139.086 16.4255 139.362 15.8978C139.469 15.7289 139.543 15.6445 139.586 15.6445C139.714 15.6445 139.777 15.8239 139.777 16.1828C139.777 16.3516 139.745 16.5522 139.682 16.7844C139.639 16.9955 139.565 17.196 139.458 17.386C139.16 17.8927 138.809 18.4521 138.405 19.0643C138.001 19.6765 137.586 20.2676 137.16 20.8375C136.841 21.2597 136.394 21.7136 135.82 22.1991C135.246 22.6847 134.629 23.0963 133.969 23.4341C133.309 23.7718 132.682 23.9407 132.086 23.9407ZM135.437 12.5729C136.501 11.3274 137.575 9.99751 138.66 8.58314C139.767 7.14766 140.682 5.69106 141.405 4.21336C141.448 4.10781 141.543 3.89671 141.692 3.58006C141.841 3.26341 141.979 2.91509 142.107 2.53511C142.235 2.13402 142.299 1.79626 142.299 1.52183C142.299 1.16296 142.16 0.983521 141.884 0.983521H141.66C141.384 0.983521 141.054 1.17351 140.671 1.55349C140.309 1.93347 139.937 2.44011 139.554 3.07342C139.065 3.8756 138.586 4.80444 138.118 5.85994C137.65 6.89434 137.192 7.99206 136.746 9.15311C136.299 10.3142 135.863 11.4541 135.437 12.5729Z" fill="#232120"/>
<path d="M117.622 23.9408C117.068 23.9408 116.611 23.6874 116.249 23.1808C115.909 22.6531 115.781 21.8403 115.866 20.7426C115.909 20.2782 116.015 19.6871 116.185 18.9693C116.356 18.2516 116.579 17.4811 116.856 16.6578C117.154 15.8134 117.483 15.0007 117.845 14.2196C118.207 13.4174 118.6 12.7102 119.026 12.098C119.26 11.7814 119.494 11.5914 119.728 11.5281C119.983 11.4436 120.441 11.4014 121.1 11.4014H122.632C122.27 11.908 121.888 12.5413 121.483 13.3013C121.079 14.0613 120.707 14.8212 120.366 15.5812C120.026 16.32 119.76 16.9428 119.568 17.4494C119.526 17.5972 119.441 17.8611 119.313 18.241C119.185 18.5999 119.068 19.001 118.962 19.4443C118.856 19.8876 118.802 20.2993 118.802 20.6793C118.802 21.017 118.866 21.302 118.994 21.5342C119.122 21.7664 119.356 21.8825 119.696 21.8825C120.1 21.8614 120.536 21.6081 121.005 21.1226C121.473 20.637 121.941 20.0143 122.409 19.2543C122.877 18.4944 123.334 17.7027 123.781 16.8795C124.249 16.035 124.664 15.254 125.026 14.5362C125.409 13.7974 125.728 13.2274 125.983 12.8263C126.302 12.3408 126.643 11.9186 127.004 11.5597C127.366 11.1797 127.781 10.9897 128.249 10.9897C128.419 10.9897 128.643 11.0003 128.919 11.0214C129.217 11.0214 129.504 11.0214 129.781 11.0214C130.079 11.0214 130.281 11.0109 130.387 10.9897C130.26 11.0742 130.111 11.2431 129.941 11.4964C129.77 11.7497 129.6 12.0136 129.43 12.288C129.281 12.5413 129.164 12.7524 129.079 12.9213C128.526 14.019 127.983 15.1273 127.451 16.2461C126.941 17.3439 126.558 18.3888 126.302 19.381C126.196 19.761 126.143 20.0882 126.143 20.3626C126.143 20.9959 126.356 21.3126 126.781 21.3126C127.079 21.3126 127.504 21.1015 128.058 20.6793C128.483 20.3415 128.898 19.9087 129.302 19.381C129.749 18.8321 130.164 18.241 130.547 17.6077C130.93 16.9744 131.26 16.3939 131.536 15.8662C131.621 15.7184 131.696 15.6445 131.76 15.6445C131.887 15.6445 131.951 15.8134 131.951 16.1512C131.951 16.32 131.919 16.5206 131.855 16.7528C131.813 16.9639 131.728 17.175 131.6 17.3861C131.302 17.8927 130.951 18.4522 130.547 19.0643C130.143 19.6554 129.728 20.2465 129.302 20.8376C129.004 21.2176 128.611 21.6503 128.121 22.1359C127.632 22.6214 127.111 23.0436 126.558 23.4025C126.026 23.7613 125.504 23.9408 124.994 23.9408C124.696 23.9408 124.419 23.8774 124.164 23.7508C123.909 23.6452 123.696 23.4236 123.526 23.0858C123.313 22.6425 123.207 22.0409 123.207 21.2809C123.207 21.0487 123.217 20.8059 123.239 20.5526C123.26 20.2782 123.292 20.0037 123.334 19.7293C123.015 20.1726 122.675 20.5843 122.313 20.9642C121.973 21.3442 121.622 21.7242 121.26 22.1042C120.451 22.9064 119.76 23.413 119.185 23.6241C118.632 23.8352 118.111 23.9408 117.622 23.9408Z" fill="#232120"/>
<path d="M112.056 23.3078C111.077 23.8145 110.046 24.0678 108.96 24.0678C108.046 24.0678 107.195 23.8461 106.407 23.4028C105.62 22.9595 105.088 22.2523 104.812 21.2813C104.684 20.838 104.62 20.3735 104.62 19.888C104.62 19.0858 104.758 18.2625 105.035 17.4181C105.333 16.5526 105.716 15.761 106.184 15.0432C106.907 13.9244 107.822 12.9956 108.929 12.2567C110.035 11.5179 111.258 11.1484 112.599 11.1484C113.599 11.1484 114.375 11.4018 114.928 11.9084C115.482 12.415 115.758 13.0061 115.758 13.6816C115.758 14.4838 115.482 15.191 114.928 15.8032C114.397 16.3943 113.694 16.8482 112.822 17.1648C112.397 17.3126 111.939 17.4287 111.45 17.5131C110.982 17.5764 110.535 17.6081 110.109 17.6081C109.237 17.6081 108.567 17.492 108.099 17.2598C107.695 18.2942 107.492 19.2441 107.492 20.1097C107.492 20.8907 107.673 21.5346 108.035 22.0412C108.397 22.5268 108.971 22.7695 109.758 22.7695C110.418 22.7695 111.067 22.5901 111.705 22.2312C112.365 21.8723 112.971 21.429 113.524 20.9013C114.099 20.3735 114.577 19.8669 114.96 19.3814C115.258 19.0225 115.514 18.6847 115.726 18.3681C115.939 18.0514 116.162 17.6926 116.396 17.2915C116.631 16.8693 116.907 16.3521 117.226 15.7399C117.311 15.5921 117.386 15.5182 117.45 15.5182C117.577 15.5182 117.641 15.6871 117.641 16.0249C117.641 16.2149 117.609 16.426 117.545 16.6582C117.503 16.8693 117.418 17.0909 117.29 17.3231C116.992 17.8509 116.631 18.4314 116.205 19.0647C115.801 19.6769 115.386 20.268 114.96 20.838C114.577 21.3446 114.141 21.809 113.652 22.2312C113.163 22.6534 112.631 23.0123 112.056 23.3078ZM109.152 16.5632C109.258 16.6265 109.375 16.6687 109.503 16.6898C109.631 16.7109 109.758 16.7215 109.886 16.7215C110.312 16.7215 110.737 16.6265 111.163 16.4365C111.588 16.2254 111.95 16.0143 112.248 15.8032C112.737 15.4654 113.152 15.0644 113.492 14.5999C113.833 14.1355 114.024 13.6078 114.067 13.0167C114.088 12.7634 114.024 12.5523 113.875 12.3834C113.748 12.1934 113.514 12.0984 113.173 12.0984C113.003 12.0984 112.79 12.1301 112.535 12.1934C112.194 12.2778 111.854 12.4361 111.514 12.6684C111.173 12.9006 110.843 13.175 110.524 13.4917C110.418 13.5972 110.226 13.8083 109.95 14.125C109.694 14.4205 109.45 14.7583 109.216 15.1382C108.982 15.4971 108.865 15.8138 108.865 16.0882C108.865 16.3204 108.96 16.4787 109.152 16.5632Z" fill="#232120"/>
<path d="M91.2632 31.192C90.5611 31.192 89.9122 31.0442 89.3165 30.7487C88.7207 30.4743 88.4229 29.9571 88.4229 29.1971C88.4229 28.7749 88.5505 28.3421 88.8058 27.8988C89.0611 27.4766 89.4228 27.2022 89.8909 27.0755C89.9335 27.0544 89.9867 27.0439 90.0505 27.0439C90.1143 27.0439 90.1675 27.0439 90.2101 27.0439C90.7845 27.0439 91.1675 27.2655 91.359 27.7088C91.3164 27.7299 91.2526 27.7933 91.1675 27.8988C91.0824 28.0255 91.0186 28.1205 90.976 28.1838C90.7845 28.5638 90.6888 28.9016 90.6888 29.1971C90.6888 29.5349 90.7951 29.7987 91.0079 29.9887C91.2419 30.1787 91.5398 30.2737 91.9015 30.2737C92.1994 30.2737 92.5185 30.1998 92.8589 30.0521C93.2206 29.9254 93.593 29.7143 93.9759 29.4188C94.6568 28.8699 95.21 28.2049 95.6355 27.4239C96.0823 26.6639 96.4653 25.9145 96.7844 25.1756C97.3376 23.8668 97.8588 22.4841 98.3482 21.0275C98.8588 19.5709 99.3588 18.1671 99.8482 16.816C99.4439 17.5549 99.0078 18.2938 98.5397 19.0326C98.0929 19.7715 97.6354 20.4153 97.1674 20.9642C96.4865 21.7875 95.7631 22.4735 94.9972 23.0224C94.2525 23.5713 93.5079 23.8457 92.7632 23.8457C92.1675 23.8457 91.6568 23.6346 91.2313 23.2124C90.8058 22.7691 90.593 22.0091 90.593 20.9325C90.593 19.8348 90.7845 18.7054 91.1675 17.5443C91.5505 16.3833 92.0824 15.3067 92.7632 14.3145C93.4653 13.3012 94.2844 12.4885 95.2206 11.8763C96.178 11.2641 97.2206 10.958 98.3482 10.958C98.7099 10.958 99.1035 11.0108 99.529 11.1163C99.9545 11.2219 100.338 11.4119 100.678 11.6863C101.04 11.9607 101.284 12.3513 101.412 12.8579C101.71 12.2246 102.072 11.7707 102.497 11.4963C102.923 11.2219 103.657 11.0847 104.699 11.0847H105.976C105.571 11.338 105.167 11.813 104.763 12.5096C104.359 13.1851 103.976 13.9873 103.614 14.9161C103.337 15.5917 103.018 16.3833 102.657 17.291C102.316 18.1988 101.997 19.0643 101.699 19.8876C101.423 20.6475 101.103 21.4919 100.742 22.4208C100.401 23.3496 100.008 24.2679 99.5609 25.1756C99.1354 26.0834 98.6461 26.8855 98.0929 27.5822C97.2418 28.6588 96.1993 29.5243 94.9653 30.1787C93.7525 30.8542 92.5185 31.192 91.2632 31.192ZM94.1674 21.1858C94.2313 21.2069 94.327 21.2175 94.4547 21.2175C94.8589 21.2175 95.2951 21.0486 95.7631 20.7109C96.2312 20.3731 96.6993 19.9403 97.1674 19.4126C97.6354 18.8637 98.0503 18.3149 98.412 17.766C99.3056 16.3938 99.9758 15.3383 100.423 14.5995C100.891 13.8606 101.167 13.3962 101.252 13.2062C101.274 13.2062 101.284 13.1851 101.284 13.1429C101.178 12.784 100.986 12.5307 100.71 12.3829C100.455 12.2141 100.157 12.1296 99.8163 12.1296C99.3482 12.1296 98.8482 12.2563 98.3163 12.5096C97.7844 12.7629 97.3376 13.069 96.9759 13.4279C96.4227 13.9767 95.8908 14.6839 95.3802 15.5494C94.8908 16.415 94.4866 17.2699 94.1674 18.1143C93.8483 18.9587 93.6887 19.6659 93.6887 20.2359C93.6887 20.7636 93.8483 21.0803 94.1674 21.1858Z" fill="#232120"/>
<path d="M85.3089 23.9405C84.5855 23.9405 84.0856 23.7294 83.809 23.3072C83.5536 22.8639 83.426 22.3573 83.426 21.7873C83.426 21.0907 83.5643 20.2568 83.8409 19.2858C84.1175 18.2936 84.4366 17.3014 84.7983 16.3093C85.1813 15.296 85.5217 14.3988 85.8196 13.6177C85.9047 13.4277 85.9472 13.2272 85.9472 13.0161C85.9472 12.7839 85.8727 12.615 85.7238 12.5095C85.5749 12.4039 85.3834 12.3511 85.1494 12.3511C84.8089 12.3511 84.426 12.4567 84.0004 12.6678C83.3409 13.0055 82.7132 13.5438 82.1175 14.2827C81.5218 15.0215 81.0431 15.7921 80.6814 16.5942C80.2771 17.502 79.9154 18.4097 79.5963 19.3174C79.2771 20.2252 79.0218 20.964 78.8303 21.534C78.7027 21.8929 78.5857 22.2623 78.4793 22.6423C78.3729 23.0223 78.2665 23.3917 78.1601 23.7506H75.0645C75.0645 23.7506 75.1389 23.4867 75.2879 22.9589C75.4155 22.4312 75.5857 21.9034 75.7985 21.3757C76.1602 20.4468 76.5219 19.518 76.8836 18.5891C77.2665 17.6603 77.5963 16.837 77.8729 16.1193C77.958 15.9082 78.0857 15.5176 78.2559 14.9477C78.4474 14.3566 78.6176 13.7444 78.7665 13.1111C78.9367 12.4778 79.0218 11.9606 79.0218 11.5595C79.0218 11.3273 78.9899 11.169 78.9261 11.0845C79.1176 11.0845 79.3303 11.0845 79.5644 11.0845C79.8197 11.0634 80.0537 11.0529 80.2665 11.0529C80.5643 11.0529 80.8409 11.0634 81.0962 11.0845C81.3728 11.1056 81.5537 11.1584 81.6388 11.2428C81.8941 11.4328 82.0218 11.7073 82.0218 12.0661C82.0218 12.3195 81.9686 12.5728 81.8622 12.8261C81.7771 13.0794 81.7133 13.2905 81.6707 13.4594C81.9686 13.185 82.2771 12.9211 82.5962 12.6678C82.9154 12.4145 83.4047 12.0872 84.0643 11.6862C84.4472 11.4539 84.926 11.264 85.5004 11.1162C86.0749 10.9684 86.5961 10.8945 87.0642 10.8945C88.277 10.8945 88.8833 11.4539 88.8833 12.5728C88.8833 12.7628 88.8621 12.9739 88.8195 13.2061C88.7982 13.4383 88.7344 13.6916 88.628 13.966C88.5216 14.3038 88.3514 14.7682 88.1174 15.3593C87.8833 15.9504 87.6387 16.5837 87.3834 17.2592C87.1493 17.9136 86.9472 18.5364 86.777 19.1275C86.6068 19.7185 86.5217 20.1935 86.5217 20.5524C86.5217 21.059 86.7132 21.3123 87.0961 21.3123C87.4365 21.3123 87.8621 21.1012 88.3727 20.679C88.8621 20.278 89.2876 19.8452 89.6493 19.3808C90.0961 18.8319 90.5003 18.2514 90.862 17.6392C91.245 17.0059 91.5748 16.4254 91.8514 15.8976C91.9577 15.7287 92.0322 15.6443 92.0748 15.6443C92.2024 15.6443 92.2662 15.8237 92.2662 16.1826C92.2662 16.3515 92.2343 16.552 92.1705 16.7842C92.128 16.9953 92.0535 17.1959 91.9471 17.3859C91.6492 17.8925 91.2982 18.4519 90.8939 19.0641C90.4897 19.6763 90.0748 20.2674 89.6493 20.8374C89.3514 21.2385 88.9578 21.6818 88.4684 22.1673C87.9791 22.6528 87.4578 23.075 86.9046 23.4339C86.3515 23.7717 85.8196 23.9405 85.3089 23.9405Z" fill="#232120"/>
<path d="M76.8897 8.55164C76.3366 8.36165 76.06 8.00278 76.06 7.47503C76.06 6.9895 76.2514 6.49341 76.6344 5.98677C77.0387 5.45902 77.4748 5.12126 77.9429 4.97349C78.0493 4.93127 78.1344 4.91016 78.1982 4.91016C78.2833 4.91016 78.3684 4.91016 78.4535 4.91016C78.8152 4.91016 79.1131 5.01571 79.3471 5.22681C79.5812 5.43791 79.6982 5.68067 79.6982 5.9551C79.6982 6.33508 79.4961 6.65174 79.0918 6.90506C78.7727 6.86284 78.4642 6.93672 78.1663 7.12671C77.8684 7.3167 77.6025 7.54891 77.3685 7.82334C77.1557 8.09777 76.9961 8.34054 76.8897 8.55164ZM71.4005 23.9409C71.1239 23.9409 70.8579 23.8775 70.6026 23.7509C70.3473 23.6453 70.1345 23.4237 69.9643 23.0859C69.7303 22.5793 69.6133 21.9776 69.6133 21.281C69.6133 20.521 69.7303 19.6766 69.9643 18.7478C70.1984 17.7978 70.5069 16.8268 70.8899 15.8346C71.0388 15.4757 71.2303 15.0324 71.4643 14.5047C71.6983 13.9769 71.9749 13.4492 72.2941 12.9214C72.6132 12.3937 72.9749 11.9609 73.3792 11.6232C73.8047 11.2643 74.2621 11.0848 74.7515 11.0848C74.9855 11.0848 75.3153 11.0954 75.7408 11.1165C76.1663 11.1376 76.4748 11.1376 76.6663 11.1165C76.5387 11.201 76.3897 11.3698 76.2195 11.6232C76.0493 11.8765 75.8898 12.1403 75.7408 12.4148C75.5919 12.6681 75.4749 12.8686 75.3898 13.0164C74.8366 14.1141 74.3153 15.2013 73.826 16.2779C73.3366 17.3545 72.9643 18.3889 72.709 19.3811C72.6664 19.55 72.6345 19.7189 72.6132 19.8877C72.5919 20.0566 72.5813 20.2149 72.5813 20.3627C72.5813 20.9749 72.7834 21.281 73.1877 21.281C73.3579 21.281 73.5387 21.2388 73.7302 21.1543C73.943 21.0488 74.1877 20.8905 74.4642 20.6794C74.9536 20.2994 75.3791 19.8666 75.7408 19.3811C76.1663 18.8322 76.5706 18.2517 76.9536 17.6395C77.3365 17.0062 77.6663 16.4257 77.9429 15.8979C78.0493 15.7291 78.1238 15.6446 78.1663 15.6446C78.294 15.6446 78.3578 15.8241 78.3578 16.1829C78.3578 16.3518 78.3259 16.5524 78.262 16.7846C78.2195 16.9957 78.145 17.1962 78.0386 17.3862C77.7408 17.8928 77.3897 18.4523 76.9855 19.0644C76.5812 19.6766 76.1663 20.2677 75.7408 20.8377C75.443 21.2388 75.0493 21.6821 74.56 22.1676C74.0706 22.6532 73.5494 23.0754 72.9962 23.4342C72.443 23.772 71.9111 23.9409 71.4005 23.9409Z" fill="#232120"/>
<path d="M64.4762 23.9726C63.7954 23.9726 63.306 23.6876 63.0081 23.1176C62.7741 22.611 62.6571 22.0093 62.6571 21.3127C62.6571 20.5316 62.7741 19.6661 63.0081 18.7162C63.2422 17.7662 63.5613 16.7952 63.9656 15.803C64.1145 15.4441 64.306 14.9902 64.54 14.4414C64.7953 13.8925 65.0932 13.3542 65.4336 12.8265C65.1358 13.0798 64.7847 13.2909 64.3805 13.4598C63.9762 13.6075 63.5826 13.6814 63.1996 13.6814C62.9018 13.6814 62.6571 13.6392 62.4656 13.5548C62.2954 13.8925 62.0188 14.4414 61.6358 15.2014C61.2529 15.9613 60.7422 16.8585 60.1039 17.8929C60.0401 17.9984 59.9763 17.9984 59.9125 17.8929C59.8699 17.7662 59.8486 17.5973 59.8486 17.3862C59.8486 17.2174 59.8699 17.0379 59.9125 16.8479C59.955 16.6579 60.0188 16.4785 60.1039 16.3096C60.3167 15.9085 60.5295 15.4969 60.7422 15.0747C60.955 14.6314 61.1465 14.2408 61.3167 13.9031C61.4869 13.5653 61.5826 13.3542 61.6039 13.2698C61.2209 13.0798 60.9337 12.8159 60.7422 12.4782C60.5507 12.1193 60.455 11.771 60.455 11.4332C60.455 11.0954 60.5295 10.7893 60.6784 10.5149C60.8486 10.2405 61.0933 10.0294 61.4124 9.88162C61.6039 9.81829 61.7848 9.78662 61.955 9.78662C62.4231 9.78662 62.806 9.93439 63.1039 10.2299C63.0826 10.3144 63.0613 10.4094 63.0401 10.5149C63.0401 10.5994 63.0401 10.6944 63.0401 10.7999C63.0401 11.4543 63.306 11.9398 63.8379 12.2565C64.3698 12.5731 64.9443 12.6893 65.5613 12.6048C65.8592 12.1826 66.1996 11.8132 66.5825 11.4965C66.9655 11.1799 67.3804 11.0216 67.8272 11.0216C68.0612 11.0216 68.391 11.0321 68.8165 11.0532C69.2633 11.0743 69.5825 11.0743 69.774 11.0532C69.6463 11.1377 69.4974 11.3065 69.3272 11.5599C69.157 11.8132 68.9974 12.0771 68.8485 12.3515C68.6995 12.6259 68.5825 12.837 68.4974 12.9848C67.9229 14.0825 67.391 15.1802 66.9017 16.278C66.4123 17.3546 66.04 18.389 65.7847 19.3811C65.7421 19.5711 65.6996 19.7506 65.657 19.9194C65.6358 20.0672 65.6251 20.2255 65.6251 20.3944C65.6251 21.0277 65.8379 21.3444 66.2634 21.3444C66.5613 21.3444 66.9868 21.1333 67.54 20.7111C68.0293 20.31 68.4655 19.8667 68.8485 19.3811C69.274 18.8323 69.6782 18.2412 70.0612 17.6079C70.4442 16.9746 70.774 16.3941 71.0505 15.8663C71.1569 15.6974 71.2314 15.613 71.2739 15.613C71.4016 15.613 71.4654 15.803 71.4654 16.183C71.4654 16.3307 71.4441 16.5102 71.4016 16.7213C71.359 16.9324 71.2846 17.1329 71.1782 17.3229C70.8591 17.8507 70.4974 18.4312 70.0931 19.0645C69.6889 19.6767 69.274 20.2783 68.8485 20.8694C68.5719 21.2494 68.1783 21.6821 67.6676 22.1677C67.1783 22.6532 66.6464 23.0754 66.0719 23.4343C65.5187 23.7931 64.9868 23.9726 64.4762 23.9726Z" fill="#232120"/>
<path d="M53.8609 23.9407C53.2013 23.9407 52.7439 23.6874 52.4886 23.1807C52.2545 22.6741 52.1375 22.0513 52.1375 21.3125C52.1375 20.637 52.2013 19.972 52.329 19.3176C52.3928 19.0221 52.4567 18.7265 52.5205 18.431C52.6056 18.1143 52.7013 17.7871 52.8077 17.4494C52.446 18.1038 52.063 18.7371 51.6588 19.3493C51.2758 19.9614 50.8822 20.4998 50.478 20.9642C49.7971 21.7875 49.0737 22.4735 48.3078 23.0224C47.5631 23.5713 46.8185 23.8457 46.0738 23.8457C45.4781 23.8457 44.9674 23.6346 44.5419 23.2124C44.1377 22.7691 43.9355 22.0091 43.9355 20.9325C43.9355 19.8348 44.127 18.7054 44.51 17.5443C44.893 16.3833 45.4249 15.3067 46.1057 14.3145C46.8078 13.3012 47.627 12.4885 48.5631 11.8763C49.5205 11.2641 50.5631 10.958 51.6907 10.958C52.0524 10.958 52.446 11.0108 52.8715 11.1163C53.2971 11.2219 53.6907 11.4224 54.0524 11.718C54.4141 11.9924 54.6587 12.3829 54.7864 12.8896C54.8077 12.8474 54.829 12.8157 54.8502 12.7946C54.8928 12.7735 54.9247 12.7524 54.946 12.7313C55.2438 12.2668 55.5843 11.8763 55.9672 11.5596C56.3502 11.243 56.7757 11.0847 57.2438 11.0847C57.4778 11.0847 57.8076 11.0952 58.2331 11.1163C58.6587 11.1374 58.9672 11.1374 59.1587 11.1163C59.0523 11.2008 58.9033 11.3697 58.7119 11.623C58.5416 11.8763 58.3821 12.1402 58.2331 12.4146C58.0842 12.6679 57.9672 12.8685 57.8821 13.0162C57.3076 14.114 56.7864 15.2011 56.3183 16.2777C55.8502 17.3544 55.4885 18.3887 55.2332 19.3809C55.1694 19.592 55.1268 19.7926 55.1055 19.9826C55.0843 20.1514 55.0736 20.3203 55.0736 20.4892C55.0736 21.0381 55.2545 21.3125 55.6162 21.3125C55.9566 21.3125 56.3821 21.1014 56.8927 20.6792C57.6374 20.0881 58.2863 19.3493 58.8395 18.4626C59.414 17.576 59.914 16.7211 60.3395 15.8978C60.4246 15.75 60.4991 15.6761 60.5629 15.6761C60.6905 15.6761 60.7544 15.8555 60.7544 16.2144C60.7544 16.3833 60.7225 16.5733 60.6586 16.7844C60.6161 16.9955 60.5416 17.196 60.4352 17.386C60.1374 17.8927 59.7437 18.5154 59.2544 19.2543C58.7863 19.9931 58.2544 20.7214 57.6587 21.4392C57.063 22.1358 56.4353 22.7269 55.7757 23.2124C55.1375 23.6979 54.4992 23.9407 53.8609 23.9407ZM47.5099 21.1858C47.5738 21.2069 47.6695 21.2175 47.7972 21.2175C48.2014 21.2175 48.6376 21.0486 49.1057 20.7109C49.5737 20.3731 50.0418 19.9403 50.5099 19.4126C50.978 18.8637 51.3928 18.3149 51.7545 17.766C52.6907 16.2883 53.3822 15.18 53.829 14.4412C54.2758 13.7023 54.5311 13.2801 54.5949 13.1746C54.4885 12.8157 54.297 12.5518 54.0205 12.3829C53.7651 12.2141 53.4566 12.1296 53.0949 12.1296C52.6269 12.1296 52.1269 12.2563 51.595 12.5096C51.0843 12.7629 50.6482 13.069 50.2865 13.4279C49.7333 13.9767 49.2014 14.6839 48.6908 15.5494C48.2014 16.415 47.7972 17.2699 47.478 18.1143C47.1802 18.9587 47.0312 19.6659 47.0312 20.2359C47.0312 20.7636 47.1908 21.0803 47.5099 21.1858Z" fill="#232120"/>
<path d="M40.1245 23.3078C39.1458 23.8145 38.1139 24.0678 37.0288 24.0678C36.1139 24.0678 35.2629 23.8461 34.4757 23.4028C33.6885 22.9595 33.1566 22.2523 32.88 21.2813C32.7523 20.838 32.6885 20.3735 32.6885 19.888C32.6885 19.0858 32.8268 18.2625 33.1034 17.4181C33.4012 16.5526 33.7842 15.761 34.2523 15.0432C34.9757 13.9244 35.8905 12.9956 36.9969 12.2567C38.1033 11.5179 39.3266 11.1484 40.667 11.1484C41.667 11.1484 42.4436 11.4018 42.9968 11.9084C43.55 12.415 43.8266 13.0061 43.8266 13.6816C43.8266 14.4838 43.55 15.191 42.9968 15.8032C42.4649 16.3943 41.7628 16.8482 40.8904 17.1648C40.4649 17.3126 40.0075 17.4287 39.5181 17.5131C39.0501 17.5764 38.6033 17.6081 38.1777 17.6081C37.3054 17.6081 36.6352 17.492 36.1671 17.2598C35.7629 18.2942 35.5608 19.2441 35.5608 20.1097C35.5608 20.8907 35.7416 21.5346 36.1033 22.0412C36.465 22.5268 37.0395 22.7695 37.8267 22.7695C38.4862 22.7695 39.1352 22.5901 39.7734 22.2312C40.433 21.8723 41.0394 21.429 41.5926 20.9013C42.167 20.3735 42.6457 19.8669 43.0287 19.3814C43.3266 19.0225 43.5819 18.6847 43.7946 18.3681C44.0074 18.0514 44.2308 17.6926 44.4648 17.2915C44.6989 16.8693 44.9755 16.3521 45.2946 15.7399C45.3797 15.5921 45.4542 15.5182 45.518 15.5182C45.6457 15.5182 45.7095 15.6871 45.7095 16.0249C45.7095 16.2149 45.6776 16.426 45.6138 16.6582C45.5712 16.8693 45.4861 17.0909 45.3584 17.3231C45.0606 17.8509 44.6989 18.4314 44.2734 19.0647C43.8691 19.6769 43.4542 20.268 43.0287 20.838C42.6457 21.3446 42.2096 21.809 41.7202 22.2312C41.2309 22.6534 40.699 23.0123 40.1245 23.3078ZM37.2203 16.5632C37.3267 16.6265 37.4437 16.6687 37.5714 16.6898C37.699 16.7109 37.8267 16.7215 37.9543 16.7215C38.3799 16.7215 38.8054 16.6265 39.2309 16.4365C39.6564 16.2254 40.0181 16.0143 40.316 15.8032C40.8053 15.4654 41.2202 15.0644 41.5606 14.5999C41.9011 14.1355 42.0925 13.6078 42.1351 13.0167C42.1564 12.7634 42.0925 12.5523 41.9436 12.3834C41.816 12.1934 41.5819 12.0984 41.2415 12.0984C41.0713 12.0984 40.8585 12.1301 40.6032 12.1934C40.2628 12.2778 39.9224 12.4361 39.582 12.6684C39.2415 12.9006 38.9118 13.175 38.5926 13.4917C38.4862 13.5972 38.2947 13.8083 38.0182 14.125C37.7628 14.4205 37.5182 14.7583 37.2841 15.1382C37.0501 15.4971 36.9331 15.8138 36.9331 16.0882C36.9331 16.3204 37.0288 16.4787 37.2203 16.5632Z" fill="#232120"/>
<path d="M6.0968 23.8775C5.52234 23.8564 4.96916 23.7086 4.43725 23.4342C3.92663 23.1598 3.5011 22.6848 3.16068 22.0093C2.82026 21.3337 2.65005 20.4049 2.65005 19.2227C2.65005 19.075 2.65005 18.9272 2.65005 18.7794C2.65005 18.6105 2.66069 18.4522 2.68197 18.3044C2.76707 17.2489 3.02239 16.0773 3.44791 14.7896C3.89471 13.4808 4.46917 12.1509 5.17128 10.7998C5.8734 9.44877 6.67125 8.17162 7.56485 6.96834C8.45845 5.74396 9.3946 4.69901 10.3733 3.8335C10.6073 3.6224 10.8414 3.45352 11.0754 3.32686C11.3095 3.17909 11.5541 3.06298 11.8095 2.97854C11.001 3.12631 10.1499 3.25297 9.25631 3.35852C8.38399 3.46407 7.54358 3.55907 6.73508 3.64351C5.94786 3.72795 5.27766 3.8335 4.72448 3.96016C3.59684 4.21348 2.73516 4.69901 2.13943 5.41675C1.56497 6.1345 1.28838 7.00001 1.30965 8.01329C0.969236 7.65442 0.713922 7.28499 0.543712 6.90501C0.394779 6.52503 0.320312 6.16616 0.320312 5.8284C0.320312 5.4062 0.405417 5.00511 0.575627 4.62513C0.767112 4.22404 0.990512 3.88628 1.24583 3.61184C1.77773 2.99965 2.44793 2.55634 3.25643 2.28191C4.0862 2.00748 4.94788 1.8386 5.84148 1.77527C6.75636 1.69083 7.61804 1.64861 8.42654 1.64861H14.969C15.0966 1.64861 15.0966 1.73305 14.969 1.90193C14.8626 2.07081 14.703 2.2608 14.4902 2.4719C14.2775 2.683 14.0754 2.85188 13.8839 2.97854C13.3094 3.3163 12.6499 3.93905 11.9052 4.84678C11.1605 5.73341 10.4052 6.82057 9.63928 8.10829C8.89461 9.37489 8.21378 10.7787 7.59677 12.3197C7.384 12.8264 7.14997 13.4597 6.89465 14.2196C6.66061 14.9796 6.44785 15.7818 6.25637 16.6262C6.08616 17.4495 6.00105 18.2306 6.00105 18.9694C6.00105 19.7505 6.14999 20.4154 6.44785 20.9643C6.74572 21.4921 7.26699 21.7559 8.01165 21.7559C8.58611 21.7559 9.26695 21.4182 10.0542 20.7427C10.8414 20.0671 11.6712 19.1911 12.5435 18.1145C13.4158 17.0167 14.2668 15.8662 15.0966 14.663C15.6711 13.7974 16.1711 12.8897 16.5966 11.9398C17.0221 10.9898 17.4264 10.0504 17.8093 9.12157C18.1923 8.19273 18.5966 7.32721 19.0221 6.52503C19.2774 6.0395 19.6497 5.55397 20.1391 5.06844C20.6284 4.5618 21.171 4.15015 21.7667 3.8335C22.3837 3.49574 23.0114 3.32686 23.6496 3.32686C23.7348 3.32686 23.8092 3.32686 23.873 3.32686C23.9582 3.32686 24.0433 3.33741 24.1284 3.35852C24.2773 3.37963 24.3518 3.4113 24.3518 3.45352C24.373 3.49574 24.4262 3.55907 24.5113 3.64351C23.8092 4.59346 23.0645 5.84951 22.2773 7.41165C21.5114 8.9738 20.8944 10.7259 20.4263 12.6681C20.2135 13.5336 20.054 14.3569 19.9476 15.1379C19.8625 15.8979 19.8199 16.6051 19.8199 17.2595C19.8199 18.6528 20.054 19.7505 20.522 20.5527C20.9901 21.3548 21.671 21.7559 22.5646 21.7559C23.4156 21.7559 24.2241 21.4604 24.99 20.8693C25.7773 20.2571 26.5007 19.4549 27.1602 18.4628C27.8411 17.4706 28.4581 16.394 29.0112 15.2329C29.5644 14.0719 30.0431 12.9425 30.4474 11.8448C30.6601 11.2959 30.8942 10.6204 31.1495 9.8182C31.4048 9.01602 31.6282 8.18217 31.8197 7.31666C32.0112 6.43004 32.1069 5.6173 32.1069 4.87845C32.1069 4.16071 31.9793 3.56962 31.724 3.1052C31.4686 2.61967 31.0218 2.37691 30.3836 2.37691C30.0431 2.37691 29.6602 2.45079 29.2346 2.59856C29.2985 2.21858 29.5751 1.91248 30.0644 1.68027C30.5538 1.42695 31.1069 1.30029 31.724 1.30029C32.2559 1.30029 32.7771 1.40584 33.2878 1.61694C33.7984 1.82805 34.2345 2.16581 34.5962 2.63023C34.9579 3.09465 35.1601 3.72795 35.2026 4.53013C35.2664 5.62785 35.1281 6.83113 34.7877 8.13995C34.4686 9.44877 33.9899 10.7787 33.3516 12.1298C32.7346 13.4808 32.0005 14.7896 31.1495 16.0562C30.3197 17.3228 29.4261 18.4733 28.4687 19.5077C27.8942 20.1199 27.1921 20.7427 26.3624 21.376C25.5539 22.0093 24.6709 22.537 23.7135 22.9592C22.756 23.3603 21.7667 23.5608 20.7454 23.5608C20.5965 23.5608 20.4476 23.5608 20.2986 23.5608C20.1497 23.5397 19.9901 23.5186 19.8199 23.4975C18.7136 23.3286 17.9264 22.7059 17.4583 21.6293C16.9902 20.5316 16.7562 19.2122 16.7562 17.6711C16.7562 16.8901 16.8094 16.0773 16.9157 15.2329C17.0221 14.3885 17.1604 13.5336 17.3306 12.6681C16.6923 13.9136 15.9583 15.2435 15.1285 16.6579C14.2988 18.0511 13.3839 19.3177 12.3839 20.4577C11.5541 21.4076 10.7563 22.1254 9.99034 22.6109C9.24567 23.0964 8.54356 23.4342 7.88399 23.6242C7.22443 23.7931 6.6287 23.8775 6.0968 23.8775Z" fill="#232120"/>
</svg>
