<svg width="1440" height="260" viewBox="0 0 1440 260" fill="none" xmlns="http://www.w3.org/2000/svg">
<rect width="1440" height="260" fill="#9CBBC8"/>
<path d="M216.578 93.476C216.578 103.074 213.941 111.3 202.234 117.136L200.09 114.183C205.592 111.458 208.861 108.294 210.707 104.515L200.828 105.464L200.336 102.089L211.902 101.351C212.307 99.8745 212.553 98.31 212.676 96.6401H201.988V93.476H216.578ZM224.945 90.3471V102.792H229.656V105.992H224.945V122.058H221.043V90.3471H224.945ZM247.691 93.476C247.691 103.074 245.055 111.3 233.348 117.136L231.203 114.183C236.705 111.458 239.975 108.294 241.82 104.515L231.941 105.464L231.449 102.089L243.016 101.351C243.42 99.8745 243.666 98.31 243.789 96.6401H233.102V93.476H247.691ZM256.059 90.3471V102.792H260.77V105.992H256.059V122.058H252.156V90.3471H256.059ZM276.73 92.1401C283.551 92.1401 288.578 95.5503 288.578 100.718C288.578 105.482 284.482 108.664 278.664 109.226V115.062H291.32V118.261H262.281V115.062H274.797V109.226C269.014 108.664 264.918 105.482 264.953 100.718C264.918 95.5503 269.945 92.1401 276.73 92.1401ZM276.73 95.3042C272.09 95.269 268.75 97.3784 268.785 100.718C268.75 104.164 272.09 106.203 276.73 106.203C281.441 106.203 284.746 104.164 284.746 100.718C284.746 97.3784 281.441 95.269 276.73 95.3042ZM322.363 107.292V110.386H293.324V107.292H305.875V104.621H297.051V91.1206H318.883V94.1792H300.953V96.3589H318.109V99.2768H300.953V101.632H319.129V104.621H309.777V107.292H322.363ZM318.707 112.636V122.128H314.77V115.73H296.594V112.636H318.707ZM342.754 100.015C342.754 104.867 344.758 109.859 349.258 112.214L347.043 115.097C344.072 113.55 342.086 110.773 340.961 107.433C339.836 111.019 337.832 114.095 334.844 115.8L332.594 112.917C337.023 110.316 339.062 105.042 339.062 100.015V99.1362H333.508V95.937H339.062V91.4721H342.754V95.937H348.238V99.1362H342.754V100.015ZM360.613 90.3471V122.128H356.887V106.027H353.617V120.582H349.926V90.9096H353.617V102.792H356.887V90.3471H360.613ZM369.859 91.7534V102.371C374.113 102.318 378.227 102.037 382.621 101.21L383.148 104.41C378.016 105.324 373.445 105.605 368.523 105.605H365.992V91.7534H369.859ZM390.777 90.3471V106.554H386.875V98.2573H378.578V95.1284H386.875V90.3471H390.777ZM390.777 107.855V116.152H373.797V118.578H391.691V121.742H369.895V113.164H386.875V110.949H369.859V107.855H390.777ZM432.789 109.437V112.636H420.203V122.164H416.336V112.636H403.82V109.437H432.789ZM430.082 94.1089V97.2026H420.273C420.643 100.349 424.773 103.636 431.137 104.41L429.695 107.503C424.439 106.835 420.361 104.515 418.305 101.457C416.213 104.55 412.1 106.835 406.809 107.503L405.402 104.41C411.748 103.636 415.914 100.402 416.301 97.2026H406.492V94.1089H416.336V90.3823H420.203V94.1089H430.082ZM459.824 90.3471V102.757H464.535V106.027H459.824V122.058H455.922V90.3471H459.824ZM451.422 93.6518C451.422 103.003 447.555 111.195 436.973 116.398L434.758 113.374C442.492 109.525 446.676 104.111 447.484 96.8862H436.48V93.6518H451.422ZM486.613 97.976C486.578 103.812 489.637 109.648 494.805 111.863L492.484 114.992C488.828 113.304 486.139 109.929 484.68 105.781C483.221 110.263 480.496 113.919 476.629 115.73L474.238 112.46C479.547 110.175 482.641 104.093 482.641 97.976V92.9135H486.613V97.976ZM501.027 90.3471V122.164H497.09V90.3471H501.027ZM212.57 154.363V159.496C215.33 159.355 218.107 159.109 220.727 158.722L221.043 161.605C213.906 162.906 206.277 162.976 200.688 162.976L200.195 159.812C202.674 159.794 205.592 159.777 208.668 159.671V154.363H212.57ZM219.426 141.249V144.414H212.641C212.816 147.806 215.506 150.865 220.305 152.078L218.512 155.136C214.75 154.117 212.061 151.919 210.637 149.089C209.23 152.078 206.576 154.363 202.797 155.382L200.934 152.429C205.732 151.111 208.369 147.982 208.598 144.414H201.883V141.249H208.668V137.628H212.57V141.249H219.426ZM226.527 137.347V169.164H222.625V137.347H226.527ZM258.52 137.347V169.128H254.793V152.921H251.207V167.511H247.621V137.945H251.207V149.792H254.793V137.347H258.52ZM244.035 141.109V144.273H236.09V158.406C239.553 158.371 242.4 158.195 245.617 157.597L245.898 160.796C242.066 161.57 238.727 161.675 234.297 161.71H232.152V141.109H244.035ZM282.215 140.546V165.999H277.609V145.011H277.469L271.527 148.808V144.624L277.82 140.546H282.215ZM297.438 166.351C292.34 166.351 288.613 163.328 288.473 159.109H292.938C293.078 161.183 295.012 162.66 297.438 162.66C300.285 162.66 302.324 160.585 302.324 157.773C302.324 154.855 300.215 152.781 297.297 152.781C295.328 152.746 293.887 153.449 293.078 154.96H288.824L290.371 140.546H305.418V144.378H294.133L293.359 151.128H293.605C294.59 150.003 296.453 149.195 298.527 149.195C303.273 149.195 306.754 152.746 306.754 157.632C306.754 162.73 302.922 166.351 297.438 166.351ZM316.879 152.957C313.258 152.957 311.289 150.285 311.289 146.382C311.289 142.515 313.328 139.843 316.879 139.843C320.57 139.843 322.504 142.515 322.504 146.382C322.504 150.32 320.5 152.957 316.879 152.957ZM316.879 150.144C318.461 150.144 319.234 148.667 319.234 146.382C319.234 144.167 318.531 142.621 316.879 142.656C315.332 142.656 314.523 144.167 314.523 146.382C314.523 148.667 315.332 150.144 316.879 150.144ZM333.508 166.667C329.887 166.703 327.918 163.996 327.918 160.128C327.918 156.226 329.957 153.554 333.508 153.554C337.164 153.554 339.133 156.226 339.133 160.128C339.133 164.031 337.129 166.703 333.508 166.667ZM333.508 163.855C335.125 163.855 335.863 162.378 335.863 160.128C335.863 157.878 335.16 156.332 333.508 156.367C331.961 156.367 331.152 157.914 331.152 160.128C331.152 162.378 331.961 163.855 333.508 163.855ZM314.559 165.999L332.066 140.546H335.617L318.109 165.999H314.559ZM376.574 137.277V144.449H381.039V147.613H376.574V154.609H372.672V137.277H376.574ZM376.574 156.015V163.679H359.699V165.929H377.559V168.847H355.832V160.972H372.672V158.863H355.797V156.015H376.574ZM370.387 139.914V142.902H351.543V139.914H359.031V137.101H362.934V139.914H370.387ZM360.965 143.886C365.676 143.921 368.699 145.925 368.734 149.089C368.699 152.359 365.676 154.292 360.965 154.292C356.254 154.292 353.16 152.359 353.16 149.089C353.16 145.925 356.254 143.921 360.965 143.886ZM360.965 146.699C358.504 146.699 356.957 147.578 356.957 149.089C356.957 150.636 358.504 151.48 360.965 151.48C363.426 151.48 365.008 150.636 365.008 149.089C365.008 147.578 363.426 146.699 360.965 146.699ZM409.094 137.382V160.339H405.156V137.382H409.094ZM409.973 165.332V168.496H388.07V158.019H392.008V165.332H409.973ZM391.762 139.457C396.578 139.457 400.305 142.796 400.305 147.402C400.305 152.113 396.578 155.382 391.762 155.382C386.91 155.382 383.184 152.113 383.184 147.402C383.184 142.796 386.91 139.457 391.762 139.457ZM391.762 142.867C389.055 142.867 386.98 144.66 387.016 147.402C386.98 150.214 389.055 151.972 391.762 151.972C394.398 151.972 396.473 150.214 396.473 147.402C396.473 144.66 394.398 142.867 391.762 142.867ZM447.836 139.21V142.093C447.836 145.398 447.836 149.072 446.781 154.222H451.246V157.386H438.73V169.058H434.793V157.386H422.277V154.222H442.914C443.336 152.341 443.617 150.636 443.793 149.089L425.266 150.003L424.773 146.664L444.039 146.101C444.092 144.765 444.092 143.517 444.109 142.339H425.758V139.21H447.836ZM479.688 138.613V141.777H475.328V147.859H479.512V150.917H469.809V154.187H482.359V157.281H453.391V154.187H465.871V150.917H456.168V147.859H460.352V141.777H455.992V138.613H479.688ZM479.09 165.332V168.496H456.977V159.566H460.879V165.332H479.09ZM464.254 147.859H471.391V141.777H464.254V147.859ZM505.035 146.382C505.035 151.585 508.094 157.07 513.227 159.214L511.082 162.308C507.32 160.691 504.578 157.351 503.137 153.308C501.66 157.667 498.883 161.324 495.156 163.082L492.906 160.023C497.934 157.703 501.062 151.796 501.062 146.382V143.71H494.066V140.476H511.996V143.71H505.035V146.382ZM519.484 137.347V169.128H515.547V137.347H519.484ZM531.578 155.453V159.109H545.676V155.453H549.543V168.742H527.746V155.453H531.578ZM531.578 165.578H545.676V162.132H531.578V165.578ZM549.648 138.718V141.179C549.648 143.587 549.648 146.242 548.875 149.968H553.199V153.097H524.16V149.968H545.008C545.676 146.611 545.746 144.08 545.746 141.847H527.746V138.718H549.648Z" fill="white"/>
<rect x="885" y="62" width="358" height="135" fill="#F2DA84"/>
<path d="M998.828 114.719V143H993.711V119.68H993.555L986.953 123.898V119.25L993.945 114.719H998.828ZM1015.74 143.391C1010.08 143.391 1005.94 140.031 1005.78 135.344H1010.74C1010.9 137.648 1013.05 139.289 1015.74 139.289C1018.91 139.289 1021.17 136.984 1021.17 133.859C1021.17 130.617 1018.83 128.312 1015.59 128.312C1013.4 128.273 1011.8 129.055 1010.9 130.734H1006.17L1007.89 114.719H1024.61V118.977H1012.07L1011.21 126.477H1011.48C1012.58 125.227 1014.65 124.328 1016.95 124.328C1022.23 124.328 1026.09 128.273 1026.09 133.703C1026.09 139.367 1021.84 143.391 1015.74 143.391ZM1034.55 132.855C1031.74 132.855 1030.21 130.777 1030.21 127.742C1030.21 124.734 1031.79 122.656 1034.55 122.656C1037.43 122.656 1038.93 124.734 1038.93 127.742C1038.93 130.805 1037.37 132.855 1034.55 132.855ZM1034.55 130.668C1035.79 130.668 1036.39 129.52 1036.39 127.742C1036.39 126.02 1035.84 124.816 1034.55 124.844C1033.35 124.844 1032.72 126.02 1032.72 127.742C1032.72 129.52 1033.35 130.668 1034.55 130.668ZM1047.49 143.52C1044.67 143.547 1043.14 141.441 1043.14 138.434C1043.14 135.398 1044.73 133.32 1047.49 133.32C1050.33 133.32 1051.86 135.398 1051.86 138.434C1051.86 141.469 1050.3 143.547 1047.49 143.52ZM1047.49 141.332C1048.75 141.332 1049.32 140.184 1049.32 138.434C1049.32 136.684 1048.77 135.48 1047.49 135.508C1046.29 135.508 1045.66 136.711 1045.66 138.434C1045.66 140.184 1046.29 141.332 1047.49 141.332ZM1032.75 143L1046.37 123.203H1049.13L1035.51 143H1032.75ZM1092.54 111.086V119.055H1097.5V122.57H1092.54V130.344H1088.2V111.086H1092.54ZM1092.54 131.906V140.422H1073.79V142.922H1093.63V146.164H1069.49V137.414H1088.2V135.07H1069.45V131.906H1092.54ZM1085.66 114.016V117.336H1064.73V114.016H1073.05V110.891H1077.38V114.016H1085.66ZM1075.2 118.43C1080.43 118.469 1083.79 120.695 1083.83 124.211C1083.79 127.844 1080.43 129.992 1075.2 129.992C1069.96 129.992 1066.52 127.844 1066.52 124.211C1066.52 120.695 1069.96 118.469 1075.2 118.43ZM1075.2 121.555C1072.46 121.555 1070.74 122.531 1070.74 124.211C1070.74 125.93 1072.46 126.867 1075.2 126.867C1077.93 126.867 1079.69 125.93 1079.69 124.211C1079.69 122.531 1077.93 121.555 1075.2 121.555ZM1128.67 111.203V136.711H1124.3V111.203H1128.67ZM1129.65 142.258V145.773H1105.31V134.133H1109.69V142.258H1129.65ZM1109.41 113.508C1114.77 113.508 1118.91 117.219 1118.91 122.336C1118.91 127.57 1114.77 131.203 1109.41 131.203C1104.02 131.203 1099.88 127.57 1099.88 122.336C1099.88 117.219 1104.02 113.508 1109.41 113.508ZM1109.41 117.297C1106.41 117.297 1104.1 119.289 1104.14 122.336C1104.1 125.461 1106.41 127.414 1109.41 127.414C1112.34 127.414 1114.65 125.461 1114.65 122.336C1114.65 119.289 1112.34 117.297 1109.41 117.297Z" fill="white"/>
<circle cx="1248" cy="129" r="19" fill="#9CBAC8"/>
<circle cx="880" cy="129" r="19" fill="#9CBAC8"/>
</svg>
